# AST/ASF file generated using VICON BodyLanguage
# -----------------------------------------------
:version 1.10
:name VICON
:units
  mass 1.0
  length 0.45
  angle deg
:documentation
   .ast/.asf automatically generated from VICON data using
   VICON BodyBuilder and BodyLanguage model FoxedUp or BRILLIANT.MOD
:root
   order TX TY TZ RX RY RZ
   axis XYZ
   position 0 0 0  
   orientation 0 0 0 
:bonedata
  begin
     id 1 
     name lhipjoint
     direction 0.560651 -0.75055 0.34978 
     length 2.44936 
     axis 0 0 0  XYZ
  end
  begin
     id 2 
     name lfemur
     direction 0.34202 -0.939693 0  
     length 7.42139  
     axis 0 0 20  XYZ
    dof rx ry rz
    limits (-160.0 20.0)
           (-70.0 70.0)
           (-60.0 70.0)
  end
  begin
     id 3 
     name ltibia
     direction 0.34202 -0.939693 0   
     length 7.75674   
     axis 0 0 20   XYZ
    dof rx
    limits (-10.0 170.0)
  end
  begin
     id 4 
     name lfoot
     direction 0.0925879 -0.254383 0.962661   
     length 2.38688   
     axis -90 7.62852e-016 20   XYZ
    dof rx rz
    limits (-45.0 90.0)
           (-70.0 20.0)
  end
  begin
     id 5 
     name ltoes
     direction 1.53567e-011 -4.21973e-011 1   
     length 1.19228   
     axis -90 7.62852e-016 20   XYZ
    dof rx
    limits (-90.0 20.0)
  end
  begin
     id 6 
     name rhipjoint
     direction -0.540087 -0.762838 0.355506   
     length 2.4099  
     axis 0 0 0  XYZ 
  end
  begin
     id 7 
     name rfemur
     direction -0.34202 -0.939693 0   
     length 7.70794   
     axis 0 0 -20   XYZ
    dof rx ry rz
    limits (-160.0 20.0)
           (-70.0 70.0)
           (-70.0 60.0)
  end
  begin
     id 8 
     name rtibia
     direction -0.34202 -0.939693 0   
     length 7.66106   
     axis 0 0 -20   XYZ
    dof rx
    limits (-10.0 170.0)
 end
 begin
     id 9 
     name rfoot
     direction -0.0830975 -0.228308 0.970036   
     length 2.4989  
     axis -90 -7.62852e-016 -20   XYZ
    dof rx rz
    limits (-45.0 90.0)
           (-20.0 70.0)
  end
  begin
     id 10 
     name rtoes
     direction -1.53517e-011 -4.21842e-011 1   
     length 1.2498   
     axis -90 -7.62852e-016 -20   XYZ
    dof rx
    limits (-90.0 20.0)
  end
  begin
     id 11 
     name lowerback
     direction 0.0266356 0.99402 -0.105896   
     length 2.1545   
     axis 0 0 0   XYZ
    dof rx ry rz
    limits (-20.0 45.0)
           (-30.0 30.0)
           (-30.0 30.0)
  end
  begin
     id 12 
     name upperback
     direction 0.0130547 0.999192 0.0380027   
     length 2.1434   
     axis 0 0 0   XYZ
    dof rx ry rz
    limits (-20.0 45.0)
           (-30.0 30.0)
           (-30.0 30.0)
  end
  begin
     id 13 
     name thorax
     direction 0.000590299 0.996288 0.0860764   
     length 2.19049   
     axis 0 0 0   XYZ
    dof rx ry rz
    limits (-20.0 45.0)
           (-30.0 30.0)
           (-30.0 30.0)
  end
  begin
     id 14 
     name lowerneck
     direction -0.0432125 0.978219 0.203028   
     length 1.62441   
     axis 0 0 0   XYZ
    dof rx ry rz
    limits (-20.0 45.0)
           (-30.0 30.0)
           (-30.0 30.0)
  end
  begin
     id 15 
     name upperneck
     direction -0.0192309 0.991699 -0.127138   
     length 1.66666   
     axis 0 0 0   XYZ
    dof rx ry rz
    limits (-20.0 45.0)
           (-30.0 30.0)
           (-30.0 30.0)
  end
  begin
     id 16
     name head
     direction -0.00434499 0.997882 -0.0649107  
     length 1.67142  
     axis 0 0 0   XYZ
    dof rx ry rz
    limits (-20.0 45.0)
           (-30.0 30.0)
           (-30.0 30.0)
  end
  begin
     id 17 
     name lclavicle
     direction 0.970351 0.240904 -0.0196058  
     length 4.04862  
     axis 0 0 0   XYZ
    dof ry rz
    limits (-20.0 10.0)
           (0.0 20.0)
  end
  begin
     id 18 
     name lhumerus
     direction 1 -4.4896e-011 -1.40911e-018   
     length 5.58345   
     axis 180 -30 -90   XYZ
    dof rx ry rz
    limits (-60.0 90.0)
           (-90.0 90.0)
           (-90.0 90.0)
  end
  begin
     id 19
     name lradius
     direction 1 -4.48968e-011 5.88912e-028   
     length 3.71087   
     axis 180 -30 -90   XYZ
    dof rx
    limits (-10.0 170.0)
  end
  begin
     id 20
     name lwrist
     direction 1 -4.48955e-011 -8.83775e-028   
     length 1.85544   
     axis 5.52448e-016 90 90   XYZ
    dof ry
    limits (-180.0 0.0)
 end
  begin
     id 21 
     name lhand
     direction 1 -4.49035e-011 -1.76755e-027   
     length 0.562322   
     axis 1.12785e-015 90 90   XYZ
    dof rx rz
    limits (-90.0 90.0)
           (-45.0 45.0)
  end
  begin
     id 22 
     name lfingers
     direction 1 -4.48824e-011 -3.5351e-027   
     length 0.453359   
     axis 2.2557e-015 90 90   XYZ
    dof rx
    limits (0.0 90.0)
  end
  begin
     id 23
     name lthumb
     direction 0.707107 -6.34888e-011 0.707107   
     length 0.650935   
     axis -90 45 2.85299e-015   XYZ
    dof rx rz
    limits (-45.0 45.0)
           (-45.0 45.0)
  end
  begin
     id 24 
     name rclavicle
     direction -0.96165 0.268562 -0.0557131   
     length 4.05446  
     axis 0 0 0   XYZ 
    dof ry rz
    limits (-10.0 20.0)
           (-20.0 0.0)
  end
  begin
     id 25 
     name rhumerus
     direction -1 -4.48957e-011 -3.36329e-027  
     length 5.20357   
     axis 180 30 90   XYZ
    dof rx ry rz
    limits (-90.0 60.0)
           (-90.0 90.0)
           (-90.0 90.0)
  end
  begin
     id 26 
     name rradius
     direction -1 -4.48974e-011 4.51441e-027   
     length 3.64937   
     axis 180 30 90   XYZ
    dof rx
    limits (-10.0 170.0)
  end
  begin
     id 27 
     name rwrist
     direction -1 -4.4896e-011 -8.83775e-028   
     length 1.82468   
     axis 5.52448e-016 -90 -90   XYZ
    dof ry
    limits (-180.0 0.0)
  end
  begin
     id 28
     name rhand
     direction -1 -4.48996e-011 -1.76755e-027   
     length 0.617996   
     axis 1.12785e-015 -90 -90   XYZ
    dof rx rz
    limits (-90.0 90.0)
           (-45.0 45.0)
  end
  begin
     id 29
     name rfingers
     direction -1 -4.48957e-011 -3.5351e-027   
     length 0.498244   
     axis 2.2557e-015 -90 -90   XYZ
    dof rx
    limits (0.0 90.0)
  end
  begin
     id 30
     name rthumb
     direction -0.707107 -6.34931e-011 0.707107   
     length 0.715382   
     axis -90 -45 -2.85299e-015   XYZ
    dof rx rz
    limits (-45.0 45.0)
           (-45.0 45.0)
  end
:hierarchy
  begin
    root lhipjoint rhipjoint lowerback
    lhipjoint lfemur
    lfemur ltibia
    ltibia lfoot
    lfoot ltoes
    rhipjoint rfemur
    rfemur rtibia
    rtibia rfoot
    rfoot rtoes
    lowerback upperback
    upperback thorax
    thorax lowerneck lclavicle rclavicle
    lowerneck upperneck
    upperneck head
    lclavicle lhumerus
    lhumerus lradius
    lradius lwrist
    lwrist lhand lthumb
    lhand lfingers
    rclavicle rhumerus
    rhumerus rradius
    rradius rwrist
    rwrist rhand rthumb
    rhand rfingers
  end

#!OML:ASF H:\ManfredETheater\Project 1\Capture day 2\Session 1\Male1.ASF
:FULLY-SPECIFIED
:DEGREES
81
root -0.503091 18.3896 11.8256 -1.88865 9.95572 -3.70386
lowerback 3.08127 -0.165103 1.75814
upperback -4.49036 -0.00385219 1.77635
thorax -6.39744 -0.0352538 0.864527
lowerneck -23.1651 -3.06142 -3.90664
upperneck 22.5728 -2.61747 -0.950414
head 11.2088 -1.65693 -0.128534
rclavicle -5.29264e-014 -1.65985e-014
rhumerus -46.5657 -6.4919 -80.027
rradius 48.3609
rwrist 0.460594
rhand -33.0479 -3.40054
rfingers 7.12502
rthumb -6.26045 -33.288
lclavicle -5.29264e-014 -1.65985e-014
lhumerus -42.5376 0.916647 86.1501
lradius 62.7432
lwrist -2.50397
lhand -20.9289 -2.12032
lfingers 7.12502
lthumb 5.443 27.7898
rfemur -11.2376 0.719175 25.9373
rtibia 31.8251
rfoot -5.5445 -6.11554
rtoes 2.80554
lfemur -8.87776 -5.90766 -19.0626
ltibia 35.507
lfoot -9.60983 -4.66856
ltoes 2.76034
82
root -0.500892 18.4036 11.9467 -1.55398 9.72023 -3.74193
lowerback 3.02384 -0.0451926 1.90089
upperback -4.51465 0.166614 1.81273
thorax -6.39063 0.0431507 0.807886
lowerneck -23.2384 -3.11715 -4.02551
upperneck 22.515 -2.65558 -0.9261
head 11.2042 -1.68076 -0.10696
rclavicle 9.44227e-015 -1.85864e-014
rhumerus -46.4658 -6.46823 -79.8297
rradius 47.7057
rwrist 0.574147
rhand -32.896 -3.5034
rfingers 7.12502
rthumb -6.11382 -33.3952
lclavicle 9.44227e-015 -1.85864e-014
lhumerus -42.5421 1.33983 86.3246
lradius 63.2127
lwrist -1.85733
lhand -21.5077 -1.99025
lfingers 7.12502
lthumb 4.88412 27.9335
rfemur -11.1888 0.745698 26.0067
rtibia 31.8009
rfoot -5.51064 -5.66406
rtoes 0.986711
lfemur -8.76555 -5.84619 -18.9882
ltibia 35.4729
lfoot -9.69709 -4.39047
ltoes 3.01833
83
root -0.498414 18.416 12.0646 -1.24391 9.48335 -3.70966
lowerback 2.99036 0.0200157 1.93559
upperback -4.54621 0.257397 1.83912
thorax -6.40497 0.0869429 0.808415
lowerneck -23.1974 -3.08288 -3.97748
upperneck 22.4215 -2.6109 -0.987435
head 11.159 -1.66341 -0.128387
rclavicle 9.19379e-016 -1.47101e-014
rhumerus -46.3533 -6.34602 -79.7092
rradius 47.1157
rwrist 0.671801
rhand -32.6635 -3.60736
rfingers 7.12502
rthumb -5.88935 -33.5055
lclavicle 9.19379e-016 -1.47101e-014
lhumerus -42.6825 1.75151 86.4067
lradius 63.6498
lwrist -1.31239
lhand -22.1681 -1.97855
lfingers 7.12502
lthumb 4.24649 27.9589
rfemur -11.1213 0.809198 26.0012
rtibia 31.8003
rfoot -5.56288 -5.32697
rtoes 0.648696
lfemur -8.63219 -5.71193 -18.9989
ltibia 35.466
lfoot -9.74301 -4.14073
ltoes 3.26735
84
root -0.494526 18.4292 12.178 -0.911452 9.29284 -3.62105
lowerback 2.98703 0.0644593 1.92151
upperback -4.55342 0.317837 1.86909
thorax -6.411 0.118253 0.84246
lowerneck -23.2862 -3.08293 -3.97576
upperneck 22.3433 -2.58746 -1.05979
head 11.145 -1.66132 -0.151851
rclavicle -6.78353e-015 -3.97569e-015
rhumerus -46.1287 -6.17329 -79.5984
rradius 46.5877
rwrist 0.641811
rhand -32.4785 -3.75403
rfingers 7.12502
rthumb -5.71073 -33.6571
lclavicle -6.78353e-015 -3.97569e-015
lhumerus -42.6833 2.21027 86.5188
lradius 63.9047
lwrist -1.06625
lhand -22.7062 -1.48262
lfingers 7.12502
lthumb 3.72684 28.4645
rfemur -11.0784 0.919229 25.9362
rtibia 31.8139
rfoot -5.62334 -5.10505
rtoes 0.328216
lfemur -8.5735 -5.59483 -19.0921
ltibia 35.4794
lfoot -9.709 -3.89975
ltoes 3.00717
85
root -0.493441 18.4417 12.2909 -0.6249 9.10535 -3.53366
lowerback 3.00821 0.118166 1.86297
upperback -4.54228 0.388714 1.90772
thorax -6.41208 0.157155 0.909437
lowerneck -23.3099 -3.06183 -3.98632
upperneck 22.2056 -2.53843 -1.11619
head 11.0968 -1.64592 -0.161669
rclavicle -6.31141e-015 7.95139e-015
rhumerus -45.8976 -6.02196 -79.4803
rradius 46.1256
rwrist 0.568162
rhand -32.3073 -4.14664
rfingers 7.12502
rthumb -5.54544 -34.0541
lclavicle -6.31141e-015 7.95139e-015
lhumerus -42.7176 2.45923 86.6834
lradius 64.0877
lwrist -0.920317
lhand -22.8259 -1.17271
lfingers 7.12502
lthumb 3.61126 28.7764
rfemur -11.0039 1.09274 25.8996
rtibia 31.8381
rfoot -5.68498 -5.02557
rtoes 0.114896
lfemur -8.47404 -5.46462 -19.1782
ltibia 35.4969
lfoot -9.64828 -3.71198
ltoes 2.83694
86
root -0.494931 18.4547 12.402 -0.338715 8.89888 -3.49643
lowerback 3.0611 0.164496 1.8266
upperback -4.57052 0.453463 1.94915
thorax -6.47346 0.191745 0.967681
lowerneck -23.2687 -3.01497 -3.88228
upperneck 22.0636 -2.47936 -1.24377
head 11.0318 -1.62526 -0.213485
rclavicle 1.31695e-014 2.8625e-014
rhumerus -45.7448 -5.93294 -79.3816
rradius 45.7599
rwrist 0.662682
rhand -32.2379 -4.44025
rfingers 7.12502
rthumb -5.47842 -34.3494
lclavicle 1.31695e-014 2.8625e-014
lhumerus -42.792 2.63054 86.7943
lradius 64.1262
lwrist -0.919809
lhand -23.1831 -1.24368
lfingers 7.12502
lthumb 3.26632 28.711
rfemur -10.9447 1.39558 25.945
rtibia 31.8651
rfoot -5.72526 -5.08587
rtoes -0.228803
lfemur -8.41099 -5.36567 -19.2038
ltibia 35.5095
lfoot -9.54656 -3.49862
ltoes 2.74283
87
root -0.492953 18.4687 12.5121 -0.0578862 8.72886 -3.41717
lowerback 3.06882 0.206554 1.79456
upperback -4.52243 0.50921 1.995
thorax -6.42784 0.222312 1.02833
lowerneck -23.3633 -2.9837 -3.94861
upperneck 21.909 -2.40571 -1.2518
head 10.992 -1.59683 -0.193405
rclavicle 1.76173e-014 2.16675e-014
rhumerus -45.4013 -5.81628 -79.2701
rradius 45.3997
rwrist 0.717163
rhand -32.2849 -4.75401
rfingers 7.12502
rthumb -5.52378 -34.662
lclavicle 1.76173e-014 2.16675e-014
lhumerus -42.6638 2.75196 86.9976
lradius 63.9822
lwrist -1.09244
lhand -23.4528 -1.16391
lfingers 7.12502
lthumb 3.00577 28.7946
rfemur -10.8759 1.57613 25.9264
rtibia 31.894
rfoot -5.77702 -5.1073
rtoes -0.459663
lfemur -8.34058 -5.37487 -19.3011
ltibia 35.5125
lfoot -9.40461 -3.27634
ltoes 2.30121
88
root -0.489955 18.4827 12.6212 0.265419 8.63614 -3.29939
lowerback 3.05642 0.202347 1.71818
upperback -4.54093 0.500518 2.02197
thorax -6.44107 0.222387 1.10014
lowerneck -23.3045 -2.92287 -3.85009
upperneck 21.7213 -2.32189 -1.39945
head 10.907 -1.56733 -0.246786
rclavicle -1.86361e-014 -6.75868e-015
rhumerus -45.1358 -5.67605 -79.1939
rradius 45.0746
rwrist 0.906831
rhand -32.4154 -5.03581
rfingers 7.12502
rthumb -5.6498 -34.9405
lclavicle -1.86361e-014 -6.75868e-015
lhumerus -42.7592 2.76241 87.1458
lradius 63.8802
lwrist -1.33308
lhand -23.5525 -1.3865
lfingers 7.12502
lthumb 2.90956 28.5734
rfemur -10.8547 1.66245 25.8607
rtibia 31.9251
rfoot -5.81625 -5.14258
rtoes -0.546201
lfemur -8.29895 -5.49008 -19.4395
ltibia 35.4989
lfoot -9.25164 -3.06934
ltoes 1.85606
89
root -0.485462 18.496 12.7279 0.5705 8.48477 -3.30937
lowerback 2.99408 0.235707 1.79599
upperback -4.48254 0.550329 2.09402
thorax -6.34389 0.245639 1.12714
lowerneck -23.3852 -2.89523 -3.90107
upperneck 21.5253 -2.25367 -1.43407
head 10.849 -1.5428 -0.239148
rclavicle -1.1281e-014 1.59028e-015
rhumerus -44.7212 -5.62253 -79.0609
rradius 44.7897
rwrist 1.17235
rhand -32.5927 -5.19728
rfingers 7.12502
rthumb -5.82103 -35.0973
lclavicle -1.1281e-014 1.59028e-015
lhumerus -42.6775 2.6986 87.3758
lradius 63.647
lwrist -1.6716
lhand -23.7031 -1.74157
lfingers 7.12502
lthumb 2.7641 28.2203
rfemur -10.8438 1.77614 25.9309
rtibia 31.9435
rfoot -5.81745 -5.17099
rtoes -0.775454
lfemur -8.25135 -5.62636 -19.4385
ltibia 35.4767
lfoot -9.09546 -2.84088
ltoes 1.2165
90
root -0.47924 18.5089 12.8332 0.906364 8.3851 -3.29396
lowerback 2.96145 0.230937 1.87634
upperback -4.50764 0.550714 2.13218
thorax -6.35167 0.242994 1.1221
lowerneck -23.3244 -2.82548 -3.78418
upperneck 21.3478 -2.16099 -1.59638
head 10.7677 -1.50948 -0.29937
rclavicle 1.03617e-014 1.98785e-015
rhumerus -44.4026 -5.50155 -79.0101
rradius 44.5149
rwrist 1.38341
rhand -32.6656 -5.39109
rfingers 7.12502
rthumb -5.89134 -35.2892
lclavicle 1.03617e-014 1.98785e-015
lhumerus -42.7433 2.57123 87.5238
lradius 63.348
lwrist -2.03255
lhand -23.5988 -1.94638
lfingers 7.12502
lthumb 2.86486 28.0141
rfemur -10.8601 1.75422 25.9586
rtibia 31.9655
rfoot -5.80091 -5.13012
rtoes -1.24345
lfemur -8.22917 -5.75247 -19.4484
ltibia 35.4373
lfoot -8.92326 -2.70631
ltoes 0.348505
91
root -0.476371 18.5215 12.9402 1.16752 8.22626 -3.44027
lowerback 2.89407 0.236329 2.04627
upperback -4.49036 0.57086 2.23072
thorax -6.2948 0.247835 1.12799
lowerneck -23.1745 -2.73761 -3.67891
upperneck 21.098 -2.05783 -1.71108
head 10.6444 -1.46493 -0.336652
rclavicle 4.01297e-014 2.06736e-014
rhumerus -44.0558 -5.43739 -78.9602
rradius 44.2709
rwrist 1.63017
rhand -32.9446 -5.28529
rfingers 7.12502
rthumb -6.16076 -35.1757
lclavicle 4.01297e-014 2.06736e-014
lhumerus -42.7892 2.39742 87.6721
lradius 62.9896
lwrist -2.41546
lhand -23.3641 -1.8948
lfingers 7.12502
lthumb 3.09151 28.0625
rfemur -10.8209 1.82604 26.1879
rtibia 31.9704
rfoot -5.81868 -5.20152
rtoes -0.0976107
lfemur -8.13887 -5.80408 -19.253
ltibia 35.389
lfoot -8.78375 -2.63706
ltoes -0.426782
92
root -0.471989 18.5339 13.0444 1.45316 8.04445 -3.53784
lowerback 2.86134 0.253191 2.18157
upperback -4.4749 0.605129 2.32584
thorax -6.26014 0.261154 1.14854
lowerneck -23.1699 -2.67133 -3.6321
upperneck 20.9626 -1.96277 -1.79441
head 10.5917 -1.42653 -0.357741
rclavicle 8.24956e-015 -1.98785e-014
rhumerus -43.6833 -5.37576 -78.8868
rradius 44.0794
rwrist 1.86689
rhand -32.9442 -5.54453
rfingers 7.12502
rthumb -6.16034 -35.435
lclavicle 8.24956e-015 -1.98785e-014
lhumerus -42.8718 2.12644 87.8729
lradius 62.666
lwrist -2.73222
lhand -22.914 -1.83196
lfingers 7.12502
lthumb 3.5261 28.1186
rfemur -10.8188 1.77559 26.3414
rtibia 31.9797
rfoot -5.75302 -5.09202
rtoes -0.366398
lfemur -8.06796 -5.78822 -19.0986
ltibia 35.3201
lfoot -8.65641 -2.64723
ltoes -1.35875
93
root -0.465239 18.5463 13.147 1.74272 7.88399 -3.58467
lowerback 2.79702 0.264588 2.30308
upperback -4.42847 0.627477 2.40088
thorax -6.17418 0.269049 1.15671
lowerneck -23.1583 -2.60462 -3.59089
upperneck 20.775 -1.86347 -1.89043
head 10.5188 -1.38745 -0.381161
rclavicle 1.19271e-015 -1.27222e-014
rhumerus -43.2283 -5.41164 -78.8
rradius 43.888
rwrist 2.06087
rhand -33.023 -5.46598
rfingers 7.12502
rthumb -6.23645 -35.3542
lclavicle 1.19271e-015 -1.27222e-014
lhumerus -42.8831 1.90035 88.0649
lradius 62.2249
lwrist -3.12565
lhand -22.3302 -1.79028
lfingers 7.12502
lthumb 4.08995 28.1502
rfemur -10.7983 1.62146 26.4179
rtibia 31.9792
rfoot -5.71408 -4.88102
rtoes -0.699783
lfemur -7.99147 -5.74662 -18.9947
ltibia 35.2358
lfoot -8.49189 -2.7301
ltoes -2.08436
94
root -0.461373 18.5577 13.251 1.99928 7.69419 -3.65119
lowerback 2.74226 0.261715 2.37672
upperback -4.40317 0.629534 2.48958
thorax -6.11665 0.269366 1.20771
lowerneck -23.0482 -2.49895 -3.45005
upperneck 20.6129 -1.7371 -2.03721
head 10.4358 -1.33424 -0.433729
rclavicle -4.37326e-015 5.56597e-015
rhumerus -42.8397 -5.41968 -78.7567
rradius 43.7477
rwrist 2.25508
rhand -33.0124 -5.35008
rfingers 7.12502
rthumb -6.22619 -35.2386
lclavicle -4.37326e-015 5.56597e-015
lhumerus -43.0105 1.6119 88.2235
lradius 61.7904
lwrist -3.43532
lhand -21.7622 -1.77194
lfingers 7.12502
lthumb 4.63835 28.1573
rfemur -10.7693 1.51449 26.5173
rtibia 32.0013
rfoot -5.64722 -4.67518
rtoes -0.9879
lfemur -7.86376 -5.63893 -18.8479
ltibia 35.1271
lfoot -8.33851 -2.87342
ltoes -3.23893
